<svg id="help" data-name="Capa 1" xmlns="http://www.w3.org/2000/svg" viewBox="0 0 67.66 67.66"><title>help</title><path d="M33.84,0A33.83,33.83,0,0,0,9.92,57.75,33.83,33.83,0,0,0,57.76,9.91,33.62,33.62,0,0,0,33.84,0ZM48.09,7.62,40.6,15.11A19.56,19.56,0,0,0,34,14a19.31,19.31,0,0,0-6.47,1.13L19.93,7.43a29.89,29.89,0,0,1,28.16.19ZM23.18,44.15A15.37,15.37,0,1,1,34,48.64,15.37,15.37,0,0,1,23.18,44.15ZM8.29,18.42l7.77,7.77a19.41,19.41,0,0,0-.2,13.66L7.63,48.08a29.87,29.87,0,0,1,.66-29.66ZM18.76,59.58,27,51.32a19.3,19.3,0,0,0,14.13,0l8.1,8.1a29.89,29.89,0,0,1-30.49.2ZM60.23,47.73l-8-8a19.42,19.42,0,0,0-.2-13.46l7.53-7.53A29.94,29.94,0,0,1,60.23,47.73Z"/></svg>