<svg id="plane" data-name="Capa 1" xmlns="http://www.w3.org/2000/svg" viewBox="0 0 265.34 265.34"><title>plane</title><path d="M204.05,98.05l53.39-53.39c10.27-10.28,10.52-27.34.05-37.42a25.91,25.91,0,0,0-36.29.35l-53.81,53.8L31.67,8.49A23.64,23.64,0,0,0,7,47.47l103,71.34-64,64-33.44-.18A12,12,0,0,0,.65,193.26a12.29,12.29,0,0,0,7.1,12.39l15.75,7.48a60.6,60.6,0,0,1,28.81,28.81L60,258a12,12,0,0,0,10.82,6.85,12.19,12.19,0,0,0,2.61-.28,12,12,0,0,0,9.39-11.65l.15-33.76,63.71-63.72,71.34,103a23.64,23.64,0,0,0,39-24.65Z"/></svg>