<svg id="rss" data-name="Layer 1" xmlns="http://www.w3.org/2000/svg" viewBox="0 0 512 512"><title>rss</title><path d="M415.7,508.2c-2-110.5-39.2-206.7-116-285.9S128.1,103.3,17.3,101.1V5.4c8.4,0,16.8-.4,25.2.1a488.87,488.87,0,0,1,78.1,10.6A483.38,483.38,0,0,1,253.5,66.7a495.63,495.63,0,0,1,84.2,59.4,505.21,505.21,0,0,1,57.5,59.5,505,505,0,0,1,53.2,78.9,505.58,505.58,0,0,1,45.8,116.2c10.3,39.9,15.4,80.4,16.4,121.5.1,4.7-.8,6.4-5.8,6.3-27.8-.2-55.6-.1-83.5-.1A53.34,53.34,0,0,1,415.7,508.2Z"/><path d="M17.3,272.5V176.7c170.9-4,326.8,145.6,324.9,331.2H247.7c-.9-63.7-22.3-119.3-66.8-165.2S81.6,273.6,17.3,272.5Z"/><path d="M82.5,374.5c36.5-.1,65.8,29.5,65.8,66.7,0,36.8-29.2,66.7-65.3,66.8-36.6.1-66-29.5-66-66.5C16.9,404.1,45.7,374.6,82.5,374.5Z"/></svg>