<svg id="time" data-name="Capa 1" xmlns="http://www.w3.org/2000/svg" viewBox="0 0 438.53 438.53"><title>time</title><path d="M409.13,109.2a218.26,218.26,0,0,0-79.8-79.79Q278.95,0,219.27,0T109.21,29.41a218.26,218.26,0,0,0-79.8,79.79Q0,159.6,0,219.27T29.41,329.33a218.29,218.29,0,0,0,79.8,79.8q50.39,29.4,110.06,29.4t110.06-29.4a218.36,218.36,0,0,0,79.8-79.8q29.4-50.4,29.4-110.06T409.13,109.2Zm-55.39,188a154.72,154.72,0,0,1-56.53,56.53,151.74,151.74,0,0,1-77.94,20.84,151.74,151.74,0,0,1-77.94-20.84A154.79,154.79,0,0,1,84.8,297.21,151.74,151.74,0,0,1,64,219.27a151.88,151.88,0,0,1,20.84-78,154.87,154.87,0,0,1,56.53-56.53A151.84,151.84,0,0,1,219.27,64a151.84,151.84,0,0,1,77.94,20.84,154.79,154.79,0,0,1,56.53,56.53,151.8,151.8,0,0,1,20.84,78A151.74,151.74,0,0,1,353.74,297.21Z"/><path d="M246.68,109.63H228.41a8.8,8.8,0,0,0-9.14,9.14v100.5h-64a8.78,8.78,0,0,0-9.14,9.13v18.27a8.78,8.78,0,0,0,9.14,9.13h91.36a8.78,8.78,0,0,0,9.14-9.13V118.77a8.8,8.8,0,0,0-9.14-9.14Z"/></svg>